<svg xmlns="http://www.w3.org/2000/svg" xmlns:xlink="http://www.w3.org/1999/xlink" width="1920" zoomAndPan="magnify" viewBox="0 0 1440 809.999993" height="1080" preserveAspectRatio="xMidYMid meet" version="1.0"><defs><clipPath id="dea1be5fed"><path d="M 407.832031 96 L 1031.832031 96 L 1031.832031 372 L 407.832031 372 Z M 407.832031 96 " clip-rule="nonzero"/></clipPath></defs><path fill="#53c89b" d="M 921.902344 649.320312 C 921.902344 657.3125 915.410156 663.679688 907.542969 663.679688 L 806.652344 663.679688 C 798.660156 663.679688 792.292969 657.1875 792.292969 649.320312 L 792.292969 499.730469 C 792.292969 475.882812 772.9375 456.527344 749.089844 456.527344 L 691.402344 456.527344 C 667.550781 456.527344 648.199219 475.882812 648.199219 499.730469 L 648.199219 649.320312 C 648.199219 657.3125 641.703125 663.679688 633.835938 663.679688 L 532.570312 663.679688 C 524.582031 663.679688 518.210938 657.1875 518.210938 649.320312 L 518.210938 361.003906 L 489.367188 361.003906 L 489.367188 649.320312 C 489.367188 673.167969 508.722656 692.523438 532.570312 692.523438 L 633.464844 692.523438 C 657.3125 692.523438 676.667969 673.167969 676.667969 649.320312 L 676.667969 499.730469 C 676.667969 491.738281 683.160156 485.371094 691.027344 485.371094 L 748.714844 485.371094 C 756.707031 485.371094 763.074219 491.863281 763.074219 499.730469 L 763.074219 649.320312 C 763.074219 673.167969 782.429688 692.523438 806.277344 692.523438 L 907.167969 692.523438 C 931.019531 692.523438 950.371094 673.167969 950.371094 649.320312 L 950.371094 361.003906 L 921.527344 361.003906 Z M 921.902344 649.320312 " fill-opacity="1" fill-rule="nonzero"/><g clip-path="url(#dea1be5fed)"><path fill="#53c89b" d="M 748.089844 106.527344 C 731.730469 92.542969 708.132812 92.542969 691.773438 106.527344 L 407.832031 350.015625 L 426.5625 371.867188 L 710.628906 128.378906 C 716.125 123.761719 723.992188 123.761719 729.359375 128.378906 L 1013.429688 371.867188 L 1032.160156 350.015625 Z M 748.089844 106.527344 " fill-opacity="1" fill-rule="nonzero"/></g></svg>