<svg xmlns="http://www.w3.org/2000/svg" xmlns:xlink="http://www.w3.org/1999/xlink" width="1920" zoomAndPan="magnify" viewBox="0 0 1440 809.999993" height="1080" preserveAspectRatio="xMidYMid meet" version="1.0"><defs><clipPath id="9a1f98ff3b"><path d="M 830 78.800781 L 1114 78.800781 L 1114 496 L 830 496 Z M 830 78.800781 " clip-rule="nonzero"/></clipPath><clipPath id="90ed51768e"><path d="M 384 571 L 693 571 L 693 731.300781 L 384 731.300781 Z M 384 571 " clip-rule="nonzero"/></clipPath></defs><path fill="#32ac81" d="M 925.984375 145.210938 C 914.300781 145.210938 903.847656 149.515625 895.855469 157.507812 C 887.863281 165.5 883.558594 176.570312 883.558594 187.636719 C 883.558594 198.707031 887.863281 209.773438 895.855469 217.765625 C 903.847656 225.761719 914.917969 230.0625 925.984375 230.0625 C 937.054688 230.0625 948.121094 225.761719 956.113281 217.765625 C 964.109375 209.773438 968.414062 198.707031 968.414062 187.636719 C 968.414062 176.570312 964.109375 165.5 956.113281 157.507812 C 948.734375 149.515625 937.667969 145.210938 925.984375 145.210938 Z M 925.984375 145.210938 " fill-opacity="1" fill-rule="nonzero"/><path fill="#32ac81" d="M 1004.074219 308.769531 C 1015.757812 308.769531 1026.210938 304.464844 1034.207031 296.472656 C 1042.199219 288.480469 1046.503906 277.410156 1046.503906 266.34375 C 1046.503906 255.273438 1042.199219 244.207031 1034.207031 236.214844 C 1026.210938 228.21875 1015.144531 223.914062 1004.074219 223.914062 C 992.394531 223.914062 981.941406 228.21875 973.945312 236.214844 C 965.953125 244.207031 961.648438 255.273438 961.648438 266.34375 C 961.648438 277.410156 965.953125 288.480469 973.945312 296.472656 C 981.941406 304.464844 992.394531 308.769531 1004.074219 308.769531 Z M 1004.074219 308.769531 " fill-opacity="1" fill-rule="nonzero"/><path fill="#32ac81" d="M 556.4375 188.253906 C 556.4375 176.570312 552.132812 166.117188 544.140625 158.121094 C 536.148438 150.128906 525.078125 145.824219 514.011719 145.824219 C 502.328125 145.824219 491.875 150.128906 483.882812 158.121094 C 475.886719 166.117188 471.585938 177.183594 471.585938 188.253906 C 471.585938 199.320312 475.886719 210.386719 483.882812 218.382812 C 491.875 226.375 502.945312 230.679688 514.011719 230.679688 C 525.695312 230.679688 536.148438 226.375 544.140625 218.382812 C 552.132812 210.386719 556.4375 199.933594 556.4375 188.253906 Z M 556.4375 188.253906 " fill-opacity="1" fill-rule="nonzero"/><path fill="#32ac81" d="M 435.921875 223.300781 C 424.238281 223.300781 413.785156 227.605469 405.792969 235.597656 C 397.796875 243.59375 393.492188 254.660156 393.492188 265.726562 C 393.492188 276.796875 397.796875 287.863281 405.792969 295.855469 C 413.785156 303.851562 424.851562 308.15625 435.921875 308.15625 C 446.988281 308.15625 458.058594 303.851562 466.050781 295.855469 C 474.042969 287.863281 478.347656 276.796875 478.347656 265.726562 C 478.347656 254.660156 474.042969 243.59375 466.050781 235.597656 C 458.058594 227.605469 447.605469 223.300781 435.921875 223.300781 Z M 435.921875 223.300781 " fill-opacity="1" fill-rule="nonzero"/><path fill="#32ac81" d="M 593.332031 236.828125 C 595.175781 234.367188 596.40625 232.523438 598.867188 230.0625 C 597.019531 227.605469 595.792969 225.144531 594.5625 222.6875 C 593.332031 222.6875 592.71875 222.6875 591.488281 222.6875 C 579.804688 222.6875 569.351562 226.988281 561.359375 234.984375 C 553.363281 242.976562 549.058594 254.042969 549.058594 265.113281 C 549.058594 274.335938 552.132812 283.558594 557.667969 290.9375 Z M 593.332031 236.828125 " fill-opacity="1" fill-rule="nonzero"/><path fill="#32ac81" d="M 535.53125 460.648438 L 358.445312 283.558594 C 353.527344 278.640625 351.066406 272.492188 351.066406 266.34375 C 351.066406 259.578125 353.527344 253.429688 358.445312 249.125 L 496.792969 110.777344 C 501.097656 106.472656 507.246094 103.398438 514.011719 103.398438 C 520.773438 103.398438 526.925781 105.855469 531.226562 110.777344 L 602.554688 182.101562 C 605.015625 180.257812 606.859375 178.414062 609.933594 176.570312 L 609.933594 154.433594 L 549.058594 93.558594 C 539.835938 84.335938 527.539062 79.417969 514.625 79.417969 C 501.714844 79.417969 489.417969 84.335938 480.191406 93.558594 L 340.613281 231.292969 C 331.390625 240.515625 326.472656 252.816406 326.472656 266.34375 C 326.472656 279.253906 331.390625 291.554688 340.613281 300.777344 L 535.53125 495.695312 Z M 535.53125 460.648438 " fill-opacity="1" fill-rule="nonzero"/><path fill="#32ac81" d="M 514.011719 386.859375 C 522.003906 386.859375 529.382812 385.015625 535.53125 380.710938 L 535.53125 336.441406 C 535.53125 329.0625 537.378906 322.296875 541.679688 316.148438 L 544.140625 313.074219 C 536.148438 305.082031 525.695312 300.777344 514.011719 300.777344 C 502.328125 300.777344 491.875 305.082031 483.882812 313.074219 C 475.886719 321.066406 471.585938 332.136719 471.585938 343.203125 C 471.585938 354.269531 475.886719 365.339844 483.882812 373.332031 C 491.261719 382.554688 502.328125 386.859375 514.011719 386.859375 Z M 514.011719 386.859375 " fill-opacity="1" fill-rule="nonzero"/><path fill="#32ac81" d="M 848.507812 223.300781 C 847.28125 223.300781 846.664062 223.300781 845.433594 223.300781 C 844.207031 225.761719 842.976562 228.21875 841.132812 230.679688 L 882.328125 292.167969 C 887.863281 284.789062 890.9375 275.566406 890.9375 266.34375 C 890.9375 254.660156 886.632812 244.207031 878.640625 236.214844 C 870.644531 227.605469 860.191406 223.300781 848.507812 223.300781 Z M 848.507812 223.300781 " fill-opacity="1" fill-rule="nonzero"/><path fill="#32ac81" d="M 925.984375 386.859375 C 937.667969 386.859375 948.121094 382.554688 956.113281 374.5625 C 964.109375 366.570312 968.414062 355.5 968.414062 344.433594 C 968.414062 333.367188 964.109375 322.296875 956.113281 314.304688 C 948.121094 306.308594 937.054688 302.007812 925.984375 302.007812 C 914.917969 302.007812 903.847656 306.308594 895.855469 314.304688 L 898.316406 317.378906 C 902.003906 323.527344 904.464844 330.289062 904.464844 337.667969 L 904.464844 381.941406 C 911.226562 384.402344 918.605469 386.859375 925.984375 386.859375 Z M 925.984375 386.859375 " fill-opacity="1" fill-rule="nonzero"/><g clip-path="url(#9a1f98ff3b)"><path fill="#32ac81" d="M 1099.382812 231.292969 L 961.035156 92.945312 C 951.8125 83.722656 939.511719 78.800781 926.601562 78.800781 C 913.6875 78.800781 901.390625 83.722656 892.167969 92.945312 L 830.679688 153.820312 L 830.679688 175.953125 C 833.136719 177.800781 835.597656 179.644531 838.058594 181.488281 L 909.382812 110.160156 C 913.6875 105.855469 919.835938 102.78125 926.601562 102.78125 C 933.363281 102.78125 939.511719 105.242188 943.816406 110.160156 L 1082.167969 248.511719 C 1086.472656 252.816406 1089.546875 258.964844 1089.546875 265.726562 C 1089.546875 272.492188 1087.085938 278.640625 1082.167969 282.945312 L 904.464844 460.648438 L 904.464844 495.695312 L 1099.382812 300.777344 C 1108.605469 291.554688 1113.527344 279.253906 1113.527344 266.34375 C 1113.527344 252.816406 1108.605469 240.515625 1099.382812 231.292969 Z M 1099.382812 231.292969 " fill-opacity="1" fill-rule="nonzero"/></g><path fill="#32ac81" d="M 640.0625 398.542969 C 626.535156 398.542969 615.46875 409.609375 615.46875 423.140625 L 615.46875 521.519531 C 615.46875 535.046875 626.535156 546.117188 640.0625 546.117188 L 799.933594 546.117188 C 813.460938 546.117188 824.527344 535.046875 824.527344 521.519531 L 824.527344 423.140625 C 824.527344 409.609375 813.460938 398.542969 799.933594 398.542969 Z M 640.0625 398.542969 " fill-opacity="1" fill-rule="nonzero"/><path fill="#32ac81" d="M 627.765625 220.226562 L 812.230469 220.226562 C 818.996094 220.226562 824.527344 214.691406 824.527344 207.929688 C 824.527344 201.164062 818.996094 195.628906 812.230469 195.628906 L 806.082031 195.628906 L 806.082031 134.140625 C 806.082031 127.378906 800.546875 121.84375 793.785156 121.84375 L 646.210938 121.84375 C 639.449219 121.84375 633.914062 127.378906 633.914062 134.140625 L 633.914062 195.628906 L 627.765625 195.628906 C 621 195.628906 615.46875 201.164062 615.46875 207.929688 C 615.46875 214.691406 621 220.226562 627.765625 220.226562 Z M 627.765625 220.226562 " fill-opacity="1" fill-rule="nonzero"/><path fill="#32ac81" d="M 977.019531 571.328125 L 805.46875 595.921875 C 787.636719 598.382812 771.648438 608.21875 760.582031 622.363281 C 750.128906 636.503906 745.207031 654.335938 747.667969 672.167969 C 752.585938 705.988281 781.488281 729.96875 814.691406 729.96875 C 817.765625 729.96875 996.082031 704.140625 996.082031 704.140625 C 1013.914062 701.683594 1029.902344 691.84375 1040.96875 677.703125 C 1051.421875 663.558594 1056.339844 645.726562 1053.882812 627.894531 C 1048.960938 591.617188 1014.527344 565.792969 977.019531 571.328125 Z M 1021.90625 663.558594 C 1015.144531 672.78125 1004.691406 678.929688 993.007812 680.777344 L 931.519531 689.382812 C 939.511719 675.855469 943.203125 660.484375 940.742188 644.496094 C 938.28125 628.511719 930.289062 614.367188 919.222656 604.53125 C 919.222656 604.53125 985.015625 595.308594 986.859375 595.308594 C 1007.765625 595.308594 1026.828125 610.679688 1029.902344 632.199219 C 1031.746094 643.269531 1028.671875 654.335938 1021.90625 663.558594 Z M 1021.90625 663.558594 " fill-opacity="1" fill-rule="nonzero"/><g clip-path="url(#90ed51768e)"><path fill="#32ac81" d="M 633.914062 596.535156 L 462.359375 571.941406 C 425.46875 566.40625 390.417969 592.234375 385.5 629.125 C 383.039062 646.957031 387.34375 664.789062 398.414062 678.929688 C 409.480469 693.6875 425.46875 702.910156 443.300781 705.371094 C 443.300781 705.371094 621.617188 731.195312 624.691406 731.195312 C 657.894531 731.195312 686.792969 707.214844 691.714844 673.398438 C 694.171875 655.566406 689.867188 637.734375 678.800781 623.589844 C 668.347656 608.21875 652.359375 598.996094 633.914062 596.535156 Z M 498.640625 645.113281 C 496.179688 661.101562 499.867188 676.472656 507.863281 690 L 446.375 681.390625 C 434.691406 679.546875 424.851562 673.398438 417.472656 664.175781 C 410.710938 654.949219 407.636719 643.882812 409.480469 632.816406 C 413.171875 609.449219 434.691406 592.847656 458.671875 596.535156 L 520.160156 605.144531 C 509.09375 614.984375 501.097656 628.511719 498.640625 645.113281 Z M 498.640625 645.113281 " fill-opacity="1" fill-rule="nonzero"/></g><path fill="#32ac81" d="M 617.3125 244.820312 L 560.128906 332.75 L 560.128906 560.875 L 584.722656 563.949219 L 584.722656 348.738281 L 855.273438 348.738281 L 855.273438 563.949219 L 879.867188 560.875 L 879.867188 332.75 L 822.683594 244.820312 Z M 617.3125 244.820312 " fill-opacity="1" fill-rule="nonzero"/><path fill="#32ac81" d="M 698.476562 608.21875 C 702.78125 613.753906 705.855469 619.902344 708.929688 626.050781 L 731.066406 626.050781 C 733.527344 619.902344 737.214844 613.753906 741.519531 608.21875 C 743.363281 605.761719 745.207031 603.914062 747.054688 601.457031 L 693.558594 601.457031 C 694.789062 603.914062 697.246094 605.761719 698.476562 608.21875 Z M 698.476562 608.21875 " fill-opacity="1" fill-rule="nonzero"/></svg>