<svg xmlns="http://www.w3.org/2000/svg" xmlns:xlink="http://www.w3.org/1999/xlink" width="1920" zoomAndPan="magnify" viewBox="0 0 1440 809.999993" height="1080" preserveAspectRatio="xMidYMid meet" version="1.0"><defs><clipPath id="95f6b450d8"><path d="M 449 8 L 1203.714844 8 L 1203.714844 643 L 449 643 Z M 449 8 " clip-rule="nonzero"/></clipPath><clipPath id="33244d6a5a"><path d="M 449 163 L 1203.714844 163 L 1203.714844 201 L 449 201 Z M 449 163 " clip-rule="nonzero"/></clipPath><clipPath id="ee85b155b6"><path d="M 300.09375 255 L 855 255 L 855 809.746094 L 300.09375 809.746094 Z M 300.09375 255 " clip-rule="nonzero"/></clipPath></defs><g clip-path="url(#95f6b450d8)"><path fill="#53c89b" d="M 486.273438 251.730469 L 486.273438 77.828125 C 486.273438 68.984375 489.902344 60.949219 495.742188 55.097656 C 501.589844 49.261719 509.636719 45.628906 518.472656 45.628906 L 1134.796875 45.628906 C 1143.628906 45.628906 1151.675781 49.261719 1157.515625 55.097656 C 1163.355469 60.949219 1166.984375 68.984375 1166.984375 77.828125 L 1166.984375 573.214844 C 1166.984375 582.050781 1163.355469 590.097656 1157.515625 595.945312 C 1151.675781 601.785156 1143.628906 605.414062 1134.796875 605.414062 L 863.652344 605.414062 C 860.488281 617.945312 856.503906 630.242188 851.738281 642.210938 L 1134.796875 642.210938 C 1153.78125 642.210938 1171.039062 634.453125 1183.53125 621.960938 C 1196.03125 609.457031 1203.777344 592.210938 1203.777344 573.214844 L 1203.777344 77.828125 C 1203.777344 58.832031 1196.03125 41.578125 1183.53125 29.085938 C 1171.039062 16.59375 1153.78125 8.835938 1134.796875 8.835938 L 518.472656 8.835938 C 499.476562 8.835938 482.230469 16.59375 469.726562 29.085938 C 457.234375 41.578125 449.476562 58.832031 449.476562 77.828125 L 449.476562 266.410156 C 461.398438 260.691406 473.6875 255.789062 486.273438 251.730469 " fill-opacity="1" fill-rule="nonzero"/></g><g clip-path="url(#33244d6a5a)"><path fill="#53c89b" d="M 467.875 163.871094 C 457.710938 163.871094 449.476562 172.105469 449.476562 182.269531 C 449.476562 192.429688 457.710938 200.664062 467.875 200.664062 L 1185.382812 200.664062 C 1195.542969 200.664062 1203.777344 192.429688 1203.777344 182.269531 C 1203.777344 172.105469 1195.542969 163.871094 1185.382812 163.871094 L 467.875 163.871094 " fill-opacity="1" fill-rule="nonzero"/></g><path fill="#53c89b" d="M 605.859375 -20.109375 C 605.859375 -30.269531 597.625 -38.503906 587.464844 -38.503906 C 577.300781 -38.503906 569.066406 -30.269531 569.066406 -20.109375 L 569.066406 71.875 C 569.066406 82.039062 577.300781 90.28125 587.464844 90.28125 C 597.625 90.28125 605.859375 82.039062 605.859375 71.875 L 605.859375 -20.109375 " fill-opacity="1" fill-rule="nonzero"/><path fill="#53c89b" d="M 765.304688 -20.109375 C 765.304688 -30.269531 757.070312 -38.503906 746.90625 -38.503906 C 736.746094 -38.503906 728.511719 -30.269531 728.511719 -20.109375 L 728.511719 71.875 C 728.511719 82.039062 736.746094 90.28125 746.90625 90.28125 C 757.070312 90.28125 765.304688 82.039062 765.304688 71.875 L 765.304688 -20.109375 " fill-opacity="1" fill-rule="nonzero"/><path fill="#53c89b" d="M 924.746094 -20.109375 C 924.746094 -30.269531 916.511719 -38.503906 906.351562 -38.503906 C 896.195312 -38.503906 887.953125 -30.269531 887.953125 -20.109375 L 887.953125 71.875 C 887.953125 82.039062 896.195312 90.28125 906.351562 90.28125 C 916.511719 90.28125 924.746094 82.039062 924.746094 71.875 L 924.746094 -20.109375 " fill-opacity="1" fill-rule="nonzero"/><path fill="#53c89b" d="M 1084.199219 -20.109375 C 1084.199219 -30.269531 1075.957031 -38.503906 1065.800781 -38.503906 C 1055.640625 -38.503906 1047.40625 -30.269531 1047.40625 -20.109375 L 1047.40625 71.875 C 1047.40625 82.039062 1055.640625 90.28125 1065.800781 90.28125 C 1075.957031 90.28125 1084.199219 82.039062 1084.199219 71.875 L 1084.199219 -20.109375 " fill-opacity="1" fill-rule="nonzero"/><g clip-path="url(#ee85b155b6)"><path fill="#53c89b" d="M 577.160156 255.863281 C 653.667969 255.863281 722.933594 286.875 773.070312 337.011719 C 823.207031 387.152344 854.230469 456.414062 854.230469 532.921875 C 854.230469 609.429688 823.207031 678.703125 773.070312 728.839844 C 722.933594 778.980469 653.667969 809.988281 577.160156 809.988281 L 577.160156 773.195312 C 643.515625 773.195312 703.582031 746.300781 747.058594 702.828125 C 790.542969 659.34375 817.433594 599.277344 817.433594 532.921875 C 817.433594 466.578125 790.542969 406.511719 747.058594 363.027344 C 703.582031 319.550781 643.515625 292.660156 577.160156 292.660156 Z M 577.160156 255.863281 L 577.160156 292.660156 C 510.808594 292.660156 450.742188 319.550781 407.265625 363.027344 C 363.78125 406.511719 336.886719 466.578125 336.886719 532.921875 C 336.886719 599.277344 363.78125 659.34375 407.265625 702.828125 C 450.742188 746.300781 510.808594 773.195312 577.160156 773.195312 L 577.160156 809.988281 C 500.65625 809.988281 431.390625 778.980469 381.242188 728.839844 C 331.105469 678.703125 300.09375 609.429688 300.09375 532.921875 C 300.09375 456.414062 331.105469 387.152344 381.242188 337.011719 C 431.390625 286.875 500.65625 255.863281 577.160156 255.863281 " fill-opacity="1" fill-rule="nonzero"/></g><path fill="#53c89b" d="M 1071.585938 237.195312 L 1108.378906 237.195312 C 1113.460938 237.195312 1117.578125 241.3125 1117.578125 246.394531 L 1117.578125 322.042969 C 1117.578125 327.121094 1113.460938 331.238281 1108.378906 331.238281 L 1071.585938 331.238281 L 1071.585938 312.84375 L 1099.179688 312.84375 L 1099.179688 255.59375 L 1071.585938 255.59375 Z M 1034.792969 237.195312 L 1071.585938 237.195312 L 1071.585938 255.59375 L 1043.988281 255.59375 L 1043.988281 312.84375 L 1071.585938 312.84375 L 1071.585938 331.238281 L 1034.792969 331.238281 C 1029.710938 331.238281 1025.582031 327.121094 1025.582031 322.042969 L 1025.582031 246.394531 C 1025.582031 241.3125 1029.710938 237.195312 1034.792969 237.195312 " fill-opacity="1" fill-rule="nonzero"/><path fill="#53c89b" d="M 927.816406 237.195312 L 964.609375 237.195312 C 969.691406 237.195312 973.808594 241.3125 973.808594 246.394531 L 973.808594 322.042969 C 973.808594 327.121094 969.691406 331.238281 964.609375 331.238281 L 927.816406 331.238281 L 927.816406 312.84375 L 955.410156 312.84375 L 955.410156 255.59375 L 927.816406 255.59375 Z M 891.023438 237.195312 L 927.816406 237.195312 L 927.816406 255.59375 L 900.222656 255.59375 L 900.222656 312.84375 L 927.816406 312.84375 L 927.816406 331.238281 L 891.023438 331.238281 C 885.941406 331.238281 881.824219 327.121094 881.824219 322.042969 L 881.824219 246.394531 C 881.824219 241.3125 885.941406 237.195312 891.023438 237.195312 " fill-opacity="1" fill-rule="nonzero"/><path fill="#53c89b" d="M 1071.585938 354.78125 L 1108.378906 354.78125 C 1113.460938 354.78125 1117.578125 358.902344 1117.578125 363.980469 L 1117.578125 439.628906 C 1117.578125 444.710938 1113.460938 448.828125 1108.378906 448.828125 L 1071.585938 448.828125 L 1071.585938 430.429688 L 1099.179688 430.429688 L 1099.179688 373.179688 L 1071.585938 373.179688 Z M 1034.792969 354.78125 L 1071.585938 354.78125 L 1071.585938 373.179688 L 1043.988281 373.179688 L 1043.988281 430.429688 L 1071.585938 430.429688 L 1071.585938 448.828125 L 1034.792969 448.828125 C 1029.710938 448.828125 1025.582031 444.710938 1025.582031 439.628906 L 1025.582031 363.980469 C 1025.582031 358.902344 1029.710938 354.78125 1034.792969 354.78125 " fill-opacity="1" fill-rule="nonzero"/><path fill="#53c89b" d="M 927.816406 354.78125 L 964.609375 354.78125 C 969.691406 354.78125 973.808594 358.902344 973.808594 363.980469 L 973.808594 439.628906 C 973.808594 444.710938 969.691406 448.828125 964.609375 448.828125 L 927.816406 448.828125 L 927.816406 430.429688 L 955.410156 430.429688 L 955.410156 373.179688 L 927.816406 373.179688 Z M 891.023438 354.78125 L 927.816406 354.78125 L 927.816406 373.179688 L 900.222656 373.179688 L 900.222656 430.429688 L 927.816406 430.429688 L 927.816406 448.828125 L 891.023438 448.828125 C 885.941406 448.828125 881.824219 444.710938 881.824219 439.628906 L 881.824219 363.980469 C 881.824219 358.902344 885.941406 354.78125 891.023438 354.78125 " fill-opacity="1" fill-rule="nonzero"/><path fill="#53c89b" d="M 1071.585938 472.371094 L 1108.378906 472.371094 C 1113.460938 472.371094 1117.578125 476.488281 1117.578125 481.566406 L 1117.578125 557.214844 C 1117.578125 562.296875 1113.460938 566.414062 1108.378906 566.414062 L 1071.585938 566.414062 L 1071.585938 548.015625 L 1099.179688 548.015625 L 1099.179688 490.765625 L 1071.585938 490.765625 Z M 1034.792969 472.371094 L 1071.585938 472.371094 L 1071.585938 490.765625 L 1043.988281 490.765625 L 1043.988281 548.015625 L 1071.585938 548.015625 L 1071.585938 566.414062 L 1034.792969 566.414062 C 1029.710938 566.414062 1025.582031 562.296875 1025.582031 557.214844 L 1025.582031 481.566406 C 1025.582031 476.488281 1029.710938 472.371094 1034.792969 472.371094 " fill-opacity="1" fill-rule="nonzero"/><path fill="#53c89b" d="M 927.816406 472.371094 L 964.609375 472.371094 C 969.691406 472.371094 973.808594 476.488281 973.808594 481.566406 L 973.808594 557.214844 C 973.808594 562.296875 969.691406 566.414062 964.609375 566.414062 L 927.816406 566.414062 L 927.816406 548.015625 L 955.410156 548.015625 L 955.410156 490.765625 L 927.816406 490.765625 Z M 891.023438 472.371094 L 927.816406 472.371094 L 927.816406 490.765625 L 900.222656 490.765625 L 900.222656 548.015625 L 927.816406 548.015625 L 927.816406 566.414062 L 891.023438 566.414062 C 885.941406 566.414062 881.824219 562.296875 881.824219 557.214844 L 881.824219 481.566406 C 881.824219 476.488281 885.941406 472.371094 891.023438 472.371094 " fill-opacity="1" fill-rule="nonzero"/><path fill="#53c89b" d="M 596.664062 347.847656 C 596.664062 337.6875 588.429688 329.453125 578.265625 329.453125 C 568.101562 329.453125 559.867188 337.6875 559.867188 347.847656 L 559.867188 531.816406 C 559.867188 541.980469 568.101562 550.222656 578.265625 550.222656 C 588.429688 550.222656 596.664062 541.980469 596.664062 531.816406 L 596.664062 347.847656 " fill-opacity="1" fill-rule="nonzero"/><path fill="#53c89b" d="M 589.832031 517.59375 C 581.980469 511.203125 570.425781 512.390625 564.03125 520.253906 C 557.640625 528.113281 558.839844 539.660156 566.691406 546.050781 L 666.722656 627.164062 C 674.582031 633.554688 686.128906 632.355469 692.519531 624.503906 C 698.914062 616.644531 697.722656 605.085938 689.863281 598.707031 L 589.832031 517.59375 " fill-opacity="1" fill-rule="nonzero"/></svg>