<svg xmlns="http://www.w3.org/2000/svg" xmlns:xlink="http://www.w3.org/1999/xlink" width="1920" zoomAndPan="magnify" viewBox="0 0 1440 809.999993" height="1080" preserveAspectRatio="xMidYMid meet" version="1.0"><defs><clipPath id="9478fd3112"><path d="M 12.359375 17.441406 L 928.859375 17.441406 L 928.859375 786.941406 L 12.359375 786.941406 Z M 12.359375 17.441406 " clip-rule="nonzero"/></clipPath></defs><g clip-path="url(#9478fd3112)"><path fill="#53c89b" d="M 470.390625 218.707031 C 614.03125 218.707031 731.535156 336.238281 731.535156 479.847656 L 731.535156 621.101562 L 209.25 621.101562 L 209.25 479.847656 C 209.25 336.210938 326.78125 218.707031 470.390625 218.707031 Z M 448.917969 39.304688 C 448.917969 27.429688 458.546875 17.832031 470.390625 17.832031 C 482.238281 17.832031 491.867188 27.460938 491.867188 39.304688 L 491.867188 134.660156 C 491.867188 146.507812 482.238281 156.136719 470.390625 156.136719 C 458.546875 156.136719 448.917969 146.507812 448.917969 134.660156 Z M 33.695312 497.476562 C 21.847656 497.476562 12.21875 487.847656 12.21875 476.003906 C 12.21875 464.15625 21.847656 454.527344 33.695312 454.527344 L 129.050781 454.527344 C 140.898438 454.527344 150.523438 464.15625 150.523438 476.003906 C 150.523438 487.875 140.898438 497.476562 129.050781 497.476562 Z M 81.472656 276.195312 C 71.226562 270.269531 67.746094 257.164062 73.667969 246.917969 C 79.589844 236.671875 92.699219 233.191406 102.945312 239.113281 L 185.53125 286.777344 C 195.773438 292.699219 199.257812 305.808594 193.332031 316.054688 C 187.410156 326.300781 174.300781 329.78125 164.054688 323.859375 L 81.472656 276.167969 Z M 233.53125 108.472656 C 227.636719 98.226562 231.171875 85.171875 241.417969 79.277344 C 251.664062 73.382812 264.71875 76.917969 270.613281 87.164062 L 318.277344 169.75 C 324.171875 179.996094 320.632812 193.078125 310.386719 198.945312 C 300.140625 204.808594 287.0625 201.300781 281.195312 191.054688 Z M 907.089844 454.527344 C 918.933594 454.527344 928.5625 464.15625 928.5625 476.003906 C 928.5625 487.875 918.933594 497.476562 907.089844 497.476562 L 811.734375 497.476562 C 799.886719 497.476562 790.257812 487.847656 790.257812 476.003906 C 790.257812 464.15625 799.886719 454.527344 811.734375 454.527344 Z M 837.839844 239.113281 C 848.085938 233.191406 861.191406 236.671875 867.117188 246.917969 C 873.039062 257.164062 869.558594 270.269531 859.3125 276.195312 L 776.726562 323.886719 C 766.480469 329.808594 753.375 326.328125 747.449219 316.082031 C 741.527344 305.835938 745.007812 292.726562 755.253906 286.804688 L 837.839844 239.140625 Z M 670.199219 87.164062 C 676.09375 76.917969 689.148438 73.382812 699.394531 79.277344 C 709.640625 85.144531 713.175781 98.226562 707.28125 108.472656 L 659.617188 191.054688 C 653.75 201.300781 640.667969 204.839844 630.421875 198.945312 C 620.175781 193.078125 616.640625 179.996094 622.535156 169.75 Z M 207.675781 664.046875 L 733.105469 664.046875 C 765.554688 664.046875 792.109375 690.601562 792.109375 723.054688 L 792.109375 786.773438 L 148.644531 786.773438 L 148.644531 723.054688 C 148.644531 690.601562 175.199219 664.046875 207.648438 664.046875 Z M 337.5625 479.847656 C 337.5625 491.695312 327.933594 501.320312 316.085938 501.320312 C 304.242188 501.320312 294.613281 491.695312 294.613281 479.847656 C 294.613281 431.480469 314.375 387.523438 346.234375 355.691406 C 378.09375 323.832031 422.027344 304.070312 470.390625 304.070312 C 482.238281 304.070312 491.867188 313.695312 491.867188 325.542969 C 491.867188 337.390625 482.238281 347.015625 470.390625 347.015625 C 433.898438 347.015625 400.691406 361.949219 376.605469 386.035156 C 352.523438 410.121094 337.5625 443.328125 337.5625 479.820312 Z M 337.5625 479.847656 " fill-opacity="1" fill-rule="evenodd"/></g></svg>