<svg xmlns="http://www.w3.org/2000/svg" xmlns:xlink="http://www.w3.org/1999/xlink" width="1920" zoomAndPan="magnify" viewBox="0 0 1440 809.999993" height="1080" preserveAspectRatio="xMidYMid meet" version="1.0"><defs><clipPath id="2f528771ce"><path d="M 283 21.121094 L 888 21.121094 L 888 810 L 283 810 Z M 283 21.121094 " clip-rule="nonzero"/></clipPath></defs><path fill="#53c89b" d="M 714.621094 668.242188 L 505.078125 668.242188 C 498.296875 668.242188 492.75 673.789062 492.75 680.566406 C 492.75 687.347656 498.296875 692.894531 505.078125 692.894531 L 721.398438 692.894531 C 717.085938 685.5 714.621094 676.871094 714.621094 668.242188 Z M 714.621094 668.242188 " fill-opacity="1" fill-rule="nonzero"/><path fill="#53c89b" d="M 438.515625 164.105469 C 432.96875 159.789062 425.574219 161.023438 421.257812 166.570312 L 391.058594 206.628906 L 377.5 194.304688 C 372.570312 189.988281 364.558594 189.988281 360.246094 194.917969 C 355.929688 199.851562 355.929688 207.863281 360.859375 212.175781 L 384.28125 233.746094 C 386.746094 235.59375 389.828125 236.828125 392.910156 236.828125 C 393.523438 236.828125 393.523438 236.828125 394.140625 236.828125 C 397.839844 236.210938 400.921875 234.980469 402.769531 231.898438 L 440.980469 180.746094 C 445.292969 176.429688 444.0625 168.417969 438.515625 164.105469 Z M 438.515625 164.105469 " fill-opacity="1" fill-rule="nonzero"/><path fill="#53c89b" d="M 800.902344 138.21875 L 505.078125 138.21875 C 498.296875 138.21875 492.75 143.765625 492.75 150.546875 C 492.75 157.324219 498.296875 162.871094 505.078125 162.871094 L 800.902344 162.871094 C 807.683594 162.871094 813.230469 157.324219 813.230469 150.546875 C 813.230469 143.765625 807.683594 138.21875 800.902344 138.21875 Z M 800.902344 138.21875 " fill-opacity="1" fill-rule="nonzero"/><path fill="#53c89b" d="M 800.902344 187.523438 L 505.078125 187.523438 C 498.296875 187.523438 492.75 193.070312 492.75 199.851562 C 492.75 206.628906 498.296875 212.175781 505.078125 212.175781 L 800.902344 212.175781 C 807.683594 212.175781 813.230469 206.628906 813.230469 199.851562 C 813.230469 193.070312 807.683594 187.523438 800.902344 187.523438 Z M 800.902344 187.523438 " fill-opacity="1" fill-rule="nonzero"/><path fill="#53c89b" d="M 800.902344 236.828125 L 505.078125 236.828125 C 498.296875 236.828125 492.75 242.375 492.75 249.152344 C 492.75 255.933594 498.296875 261.480469 505.078125 261.480469 L 800.902344 261.480469 C 807.683594 261.480469 813.230469 255.933594 813.230469 249.152344 C 813.230469 242.375 807.683594 236.828125 800.902344 236.828125 Z M 800.902344 236.828125 " fill-opacity="1" fill-rule="nonzero"/><path fill="#53c89b" d="M 813.230469 366.253906 C 813.230469 359.472656 807.683594 353.925781 800.902344 353.925781 L 505.078125 353.925781 C 498.296875 353.925781 492.75 359.472656 492.75 366.253906 C 492.75 373.03125 498.296875 378.578125 505.078125 378.578125 L 800.902344 378.578125 C 807.683594 378.578125 813.230469 373.03125 813.230469 366.253906 Z M 813.230469 366.253906 " fill-opacity="1" fill-rule="nonzero"/><path fill="#53c89b" d="M 438.515625 379.8125 C 432.96875 375.496094 425.574219 376.730469 421.257812 382.277344 L 391.058594 422.335938 L 377.5 410.011719 C 372.570312 405.695312 364.558594 405.695312 360.246094 410.625 C 355.929688 415.558594 355.929688 423.570312 360.859375 427.882812 L 384.28125 449.453125 C 386.746094 451.300781 389.828125 452.535156 392.910156 452.535156 C 393.523438 452.535156 393.523438 452.535156 394.140625 452.535156 C 397.839844 451.917969 400.921875 450.6875 402.769531 447.605469 L 440.980469 396.453125 C 445.292969 392.136719 444.0625 384.125 438.515625 379.8125 Z M 438.515625 379.8125 " fill-opacity="1" fill-rule="nonzero"/><path fill="#53c89b" d="M 433.585938 597.984375 C 428.65625 593.050781 421.257812 593.050781 416.328125 597.984375 L 400.304688 614.007812 L 384.28125 597.984375 C 379.351562 593.050781 371.953125 593.050781 367.023438 597.984375 C 362.09375 602.914062 362.09375 610.308594 367.023438 615.238281 L 383.046875 631.261719 L 367.023438 647.289062 C 362.09375 652.21875 362.09375 659.613281 367.023438 664.542969 C 369.488281 667.007812 372.570312 668.242188 375.652344 668.242188 C 378.734375 668.242188 381.816406 667.007812 384.28125 664.542969 L 400.304688 648.519531 L 416.328125 664.542969 C 418.792969 667.007812 421.875 668.242188 424.957031 668.242188 C 428.039062 668.242188 431.121094 667.007812 433.585938 664.542969 C 438.515625 659.613281 438.515625 652.21875 433.585938 647.289062 L 417.5625 631.261719 L 433.585938 615.238281 C 438.515625 610.308594 438.515625 602.914062 433.585938 597.984375 Z M 433.585938 597.984375 " fill-opacity="1" fill-rule="nonzero"/><path fill="#53c89b" d="M 492.75 631.261719 C 492.75 638.042969 498.296875 643.589844 505.078125 643.589844 L 716.46875 643.589844 L 718.316406 618.9375 L 505.078125 618.9375 C 498.296875 618.9375 492.75 624.484375 492.75 631.261719 Z M 492.75 631.261719 " fill-opacity="1" fill-rule="nonzero"/><path fill="#53c89b" d="M 722.015625 569.632812 L 505.078125 569.632812 C 498.296875 569.632812 492.75 575.179688 492.75 581.960938 C 492.75 588.738281 498.296875 594.285156 505.078125 594.285156 L 720.167969 594.285156 Z M 722.015625 569.632812 " fill-opacity="1" fill-rule="nonzero"/><path fill="#53c89b" d="M 773.167969 452.535156 L 505.078125 452.535156 C 498.296875 452.535156 492.75 458.082031 492.75 464.859375 C 492.75 471.640625 498.296875 477.1875 505.078125 477.1875 L 760.226562 477.1875 Z M 773.167969 452.535156 " fill-opacity="1" fill-rule="nonzero"/><path fill="#53c89b" d="M 799.671875 403.230469 L 505.078125 403.230469 C 498.296875 403.230469 492.75 408.777344 492.75 415.558594 C 492.75 422.335938 498.296875 427.882812 505.078125 427.882812 L 786.726562 427.882812 Z M 799.671875 403.230469 " fill-opacity="1" fill-rule="nonzero"/><g clip-path="url(#2f528771ce)"><path fill="#53c89b" d="M 862.535156 653.449219 L 862.535156 760.6875 C 862.535156 774.246094 851.441406 785.339844 837.882812 785.339844 L 332.511719 785.339844 C 318.953125 785.339844 307.859375 774.246094 307.859375 760.6875 L 307.859375 70.425781 C 307.859375 56.867188 318.953125 45.773438 332.511719 45.773438 L 837.882812 45.773438 C 851.441406 45.773438 862.535156 56.867188 862.535156 70.425781 L 862.535156 286.132812 L 887.1875 239.910156 L 887.1875 70.425781 C 887.1875 43.308594 865 21.121094 837.882812 21.121094 L 332.511719 21.121094 C 305.394531 21.121094 283.207031 43.308594 283.207031 70.425781 L 283.207031 760.6875 C 283.207031 787.804688 305.394531 809.992188 332.511719 809.992188 L 837.882812 809.992188 C 865 809.992188 887.1875 787.804688 887.1875 760.6875 L 887.1875 633.730469 C 885.953125 634.960938 884.71875 636.195312 883.488281 637.425781 Z M 862.535156 653.449219 " fill-opacity="1" fill-rule="nonzero"/></g><path fill="#53c89b" d="M 1052.355469 196.769531 C 1052.355469 196.769531 996.886719 167.1875 996.886719 167.1875 C 978.398438 157.324219 955.597656 164.71875 946.351562 182.59375 L 749.75 549.296875 C 749.132812 550.527344 748.515625 552.375 748.515625 554.226562 L 739.273438 667.007812 C 739.273438 667.007812 739.273438 667.625 739.273438 667.625 C 738.65625 681.800781 750.367188 692.894531 763.925781 692.894531 C 769.472656 692.894531 775.019531 691.046875 779.332031 687.964844 C 779.332031 687.964844 868.082031 617.703125 868.082031 617.703125 C 869.3125 616.472656 870.546875 615.238281 871.160156 614.007812 L 1067.761719 247.304688 C 1077.625 229.433594 1070.226562 206.011719 1052.355469 196.769531 Z M 763.925781 668.242188 L 771.320312 569.015625 L 844.042969 605.378906 Z M 858.835938 585.039062 L 779.949219 544.980469 L 916.769531 289.832031 L 996.273438 329.273438 Z M 1046.191406 235.59375 L 1007.367188 307.703125 L 927.863281 268.257812 L 967.304688 194.304688 C 970.386719 188.140625 978.398438 185.675781 984.5625 188.757812 L 1040.03125 218.339844 C 1043.109375 220.1875 1044.960938 222.652344 1046.191406 225.734375 C 1048.042969 229.433594 1047.425781 232.515625 1046.191406 235.59375 Z M 1046.191406 235.59375 " fill-opacity="1" fill-rule="nonzero"/></svg>