<svg xmlns="http://www.w3.org/2000/svg" xmlns:xlink="http://www.w3.org/1999/xlink" width="1920" zoomAndPan="magnify" viewBox="0 0 1440 809.999993" height="1080" preserveAspectRatio="xMidYMid meet" version="1.0"><path fill="#c3c2c0" d="M 929.484375 810 L 1069.136719 810 C 1084.578125 810 1097.070312 797.507812 1097.070312 782.070312 L 1097.070312 377.070312 L 915.515625 377.070312 L 929.484375 810 " fill-opacity="1" fill-rule="nonzero"/><path fill="#c3c2c0" d="M 510.515625 810 L 370.863281 810 C 355.421875 810 342.929688 797.507812 342.929688 782.070312 L 342.929688 377.070312 L 524.484375 377.070312 L 510.515625 810 " fill-opacity="1" fill-rule="nonzero"/><path fill="#32ac81" d="M 915.515625 391.035156 L 1097.070312 391.035156 C 1112.507812 391.035156 1125 378.542969 1125 363.101562 L 1125 349.136719 C 1125 333.699219 1112.507812 321.207031 1097.070312 321.207031 L 915.515625 321.207031 L 915.515625 391.035156 " fill-opacity="1" fill-rule="nonzero"/><path fill="#32ac81" d="M 524.484375 391.035156 L 342.929688 391.035156 C 327.492188 391.035156 315 378.542969 315 363.101562 L 315 349.136719 C 315 333.699219 327.492188 321.207031 342.929688 321.207031 L 524.484375 321.207031 L 524.484375 391.035156 " fill-opacity="1" fill-rule="nonzero"/><path fill="#c3c2c0" d="M 929.484375 810 L 510.515625 810 L 510.515625 55.863281 L 929.484375 55.863281 L 929.484375 810 " fill-opacity="1" fill-rule="nonzero"/><path fill="#32ac81" d="M 929.484375 69.828125 L 510.515625 69.828125 C 495.078125 69.828125 482.585938 57.335938 482.585938 41.898438 L 482.585938 27.929688 C 482.585938 12.492188 495.078125 0 510.515625 0 L 929.484375 0 C 944.921875 0 957.414062 12.492188 957.414062 27.929688 L 957.414062 41.898438 C 957.414062 57.335938 944.921875 69.828125 929.484375 69.828125 " fill-opacity="1" fill-rule="nonzero"/><path fill="#c3c2c0" d="M 873.621094 810 L 817.757812 754.136719 L 622.242188 754.136719 L 580.34375 810 L 873.621094 810 " fill-opacity="1" fill-rule="nonzero"/><path fill="#11263d" d="M 817.757812 586.550781 L 622.242188 586.550781 L 622.242188 754.136719 L 817.757812 754.136719 L 817.757812 586.550781 " fill-opacity="1" fill-rule="nonzero"/><path fill="#32ac81" d="M 831.722656 251.378906 L 831.722656 279.308594 C 831.722656 287.003906 825.449219 293.277344 817.757812 293.277344 L 747.929688 293.277344 L 747.929688 363.101562 C 747.929688 370.796875 741.65625 377.070312 733.964844 377.070312 L 706.035156 377.070312 C 698.34375 377.070312 692.070312 370.796875 692.070312 363.101562 L 692.070312 293.277344 L 622.242188 293.277344 C 614.550781 293.277344 608.277344 287.003906 608.277344 279.308594 L 608.277344 251.378906 C 608.277344 243.6875 614.550781 237.414062 622.242188 237.414062 L 692.070312 237.414062 L 692.070312 167.585938 C 692.070312 159.894531 698.34375 153.621094 706.035156 153.621094 L 733.964844 153.621094 C 741.65625 153.621094 747.929688 159.894531 747.929688 167.585938 L 747.929688 237.414062 L 817.757812 237.414062 C 825.449219 237.414062 831.722656 243.6875 831.722656 251.378906 " fill-opacity="1" fill-rule="nonzero"/><path fill="#c3c2c0" d="M 817.757812 586.550781 L 622.242188 586.550781 C 614.550781 586.550781 608.277344 580.277344 608.277344 572.585938 L 608.277344 544.65625 C 608.277344 536.964844 614.550781 530.691406 622.242188 530.691406 L 817.757812 530.691406 C 825.449219 530.691406 831.722656 536.964844 831.722656 544.65625 L 831.722656 572.585938 C 831.722656 580.277344 825.449219 586.550781 817.757812 586.550781 " fill-opacity="1" fill-rule="nonzero"/><path fill="#11263d" d="M 1041.207031 516.722656 C 1033.515625 516.722656 1027.242188 510.449219 1027.242188 502.757812 L 1027.242188 460.863281 C 1027.242188 453.171875 1033.515625 446.898438 1041.207031 446.898438 C 1048.898438 446.898438 1055.171875 453.171875 1055.171875 460.863281 L 1055.171875 502.757812 C 1055.171875 510.449219 1048.898438 516.722656 1041.207031 516.722656 " fill-opacity="1" fill-rule="nonzero"/><path fill="#11263d" d="M 985.34375 516.722656 C 977.652344 516.722656 971.378906 510.449219 971.378906 502.757812 L 971.378906 460.863281 C 971.378906 453.171875 977.652344 446.898438 985.34375 446.898438 C 993.035156 446.898438 999.308594 453.171875 999.308594 460.863281 L 999.308594 502.757812 C 999.308594 510.449219 993.035156 516.722656 985.34375 516.722656 " fill-opacity="1" fill-rule="nonzero"/><path fill="#11263d" d="M 1041.207031 628.449219 C 1033.515625 628.449219 1027.242188 622.175781 1027.242188 614.484375 L 1027.242188 572.585938 C 1027.242188 564.894531 1033.515625 558.621094 1041.207031 558.621094 C 1048.898438 558.621094 1055.171875 564.894531 1055.171875 572.585938 L 1055.171875 614.484375 C 1055.171875 622.175781 1048.898438 628.449219 1041.207031 628.449219 " fill-opacity="1" fill-rule="nonzero"/><path fill="#11263d" d="M 985.34375 628.449219 C 977.652344 628.449219 971.378906 622.175781 971.378906 614.484375 L 971.378906 572.585938 C 971.378906 564.894531 977.652344 558.621094 985.34375 558.621094 C 993.035156 558.621094 999.308594 564.894531 999.308594 572.585938 L 999.308594 614.484375 C 999.308594 622.175781 993.035156 628.449219 985.34375 628.449219 " fill-opacity="1" fill-rule="nonzero"/><path fill="#11263d" d="M 1041.207031 740.171875 C 1033.515625 740.171875 1027.242188 733.898438 1027.242188 726.207031 L 1027.242188 684.308594 C 1027.242188 676.617188 1033.515625 670.34375 1041.207031 670.34375 C 1048.898438 670.34375 1055.171875 676.617188 1055.171875 684.308594 L 1055.171875 726.207031 C 1055.171875 733.898438 1048.898438 740.171875 1041.207031 740.171875 " fill-opacity="1" fill-rule="nonzero"/><path fill="#11263d" d="M 985.34375 740.171875 C 977.652344 740.171875 971.378906 733.898438 971.378906 726.207031 L 971.378906 684.308594 C 971.378906 676.617188 977.652344 670.34375 985.34375 670.34375 C 993.035156 670.34375 999.308594 676.617188 999.308594 684.308594 L 999.308594 726.207031 C 999.308594 733.898438 993.035156 740.171875 985.34375 740.171875 " fill-opacity="1" fill-rule="nonzero"/><path fill="#11263d" d="M 398.792969 516.722656 C 406.484375 516.722656 412.757812 510.449219 412.757812 502.757812 L 412.757812 460.863281 C 412.757812 453.171875 406.484375 446.898438 398.792969 446.898438 C 391.101562 446.898438 384.828125 453.171875 384.828125 460.863281 L 384.828125 502.757812 C 384.828125 510.449219 391.101562 516.722656 398.792969 516.722656 " fill-opacity="1" fill-rule="nonzero"/><path fill="#11263d" d="M 454.65625 516.722656 C 462.347656 516.722656 468.621094 510.449219 468.621094 502.757812 L 468.621094 460.863281 C 468.621094 453.171875 462.347656 446.898438 454.65625 446.898438 C 446.964844 446.898438 440.691406 453.171875 440.691406 460.863281 L 440.691406 502.757812 C 440.691406 510.449219 446.964844 516.722656 454.65625 516.722656 " fill-opacity="1" fill-rule="nonzero"/><path fill="#11263d" d="M 398.792969 628.449219 C 406.484375 628.449219 412.757812 622.175781 412.757812 614.484375 L 412.757812 572.585938 C 412.757812 564.894531 406.484375 558.621094 398.792969 558.621094 C 391.101562 558.621094 384.828125 564.894531 384.828125 572.585938 L 384.828125 614.484375 C 384.828125 622.175781 391.101562 628.449219 398.792969 628.449219 " fill-opacity="1" fill-rule="nonzero"/><path fill="#11263d" d="M 454.65625 628.449219 C 462.347656 628.449219 468.621094 622.175781 468.621094 614.484375 L 468.621094 572.585938 C 468.621094 564.894531 462.347656 558.621094 454.65625 558.621094 C 446.964844 558.621094 440.691406 564.894531 440.691406 572.585938 L 440.691406 614.484375 C 440.691406 622.175781 446.964844 628.449219 454.65625 628.449219 " fill-opacity="1" fill-rule="nonzero"/><path fill="#11263d" d="M 398.792969 740.171875 C 406.484375 740.171875 412.757812 733.898438 412.757812 726.207031 L 412.757812 684.308594 C 412.757812 676.617188 406.484375 670.34375 398.792969 670.34375 C 391.101562 670.34375 384.828125 676.617188 384.828125 684.308594 L 384.828125 726.207031 C 384.828125 733.898438 391.101562 740.171875 398.792969 740.171875 " fill-opacity="1" fill-rule="nonzero"/><path fill="#11263d" d="M 454.65625 740.171875 C 462.347656 740.171875 468.621094 733.898438 468.621094 726.207031 L 468.621094 684.308594 C 468.621094 676.617188 462.347656 670.34375 454.65625 670.34375 C 446.964844 670.34375 440.691406 676.617188 440.691406 684.308594 L 440.691406 726.207031 C 440.691406 733.898438 446.964844 740.171875 454.65625 740.171875 " fill-opacity="1" fill-rule="nonzero"/><path fill="#1e9f74" d="M 733.964844 754.136719 L 706.035156 754.136719 L 706.035156 586.550781 L 733.964844 586.550781 L 733.964844 754.136719 " fill-opacity="1" fill-rule="nonzero"/></svg>