<svg xmlns="http://www.w3.org/2000/svg" xmlns:xlink="http://www.w3.org/1999/xlink" width="1920" zoomAndPan="magnify" viewBox="0 0 1440 809.999993" height="1080" preserveAspectRatio="xMidYMid meet" version="1.0"><defs><clipPath id="b741f83eff"><path d="M 194.121094 235.40625 L 1245.621094 235.40625 L 1245.621094 574.40625 L 194.121094 574.40625 Z M 194.121094 235.40625 " clip-rule="nonzero"/></clipPath></defs><path fill="#00172d" d="M 229.832031 405.101562 C 229.832031 331.21875 289.722656 271.316406 363.609375 271.316406 C 437.496094 271.316406 497.394531 331.21875 497.394531 405.101562 C 497.394531 478.988281 437.496094 538.890625 363.609375 538.890625 C 289.722656 538.890625 229.832031 478.988281 229.832031 405.101562 " fill-opacity="1" fill-rule="nonzero"/><g clip-path="url(#b741f83eff)"><path fill="#00172d" d="M 212.972656 405.101562 C 212.972656 321.910156 280.414062 254.464844 363.617188 254.464844 C 446.8125 254.464844 514.253906 321.910156 514.253906 405.101562 C 514.253906 488.296875 446.8125 555.742188 363.617188 555.742188 C 280.414062 555.742188 212.972656 488.296875 212.972656 405.101562 Z M 1076.382812 235.617188 L 363.617188 235.617188 C 270.011719 235.617188 194.121094 311.496094 194.121094 405.101562 C 194.121094 498.707031 270.011719 574.589844 363.617188 574.589844 L 1076.382812 574.589844 C 1169.988281 574.589844 1245.867188 498.707031 1245.867188 405.101562 C 1245.867188 311.496094 1169.988281 235.617188 1076.382812 235.617188 " fill-opacity="1" fill-rule="nonzero"/></g><path fill="#71e4b6" d="M 363.609375 538.890625 C 289.722656 538.890625 229.832031 478.988281 229.832031 405.101562 C 229.832031 331.21875 289.722656 271.316406 363.609375 271.316406 C 437.496094 271.316406 497.394531 331.21875 497.394531 405.101562 C 497.394531 478.988281 437.496094 538.890625 363.609375 538.890625 Z M 363.609375 254.582031 C 280.480469 254.582031 213.09375 321.972656 213.09375 405.101562 C 213.09375 488.230469 280.480469 555.625 363.609375 555.625 C 446.738281 555.625 514.132812 488.230469 514.132812 405.101562 C 514.132812 321.972656 446.738281 254.582031 363.609375 254.582031 " fill-opacity="1" fill-rule="nonzero"/><path fill="#71e4b6" d="M 621.105469 441.808594 L 632.429688 441.808594 C 642.074219 441.808594 647.507812 436.507812 647.507812 424.929688 C 647.507812 413.863281 642.496094 407.773438 630.472656 407.773438 L 621.105469 407.773438 Z M 630.464844 395.808594 C 641.78125 395.808594 645.171875 391.199219 645.171875 382.078125 C 645.171875 373.15625 640.464844 368.503906 631.328125 368.503906 L 621.105469 368.503906 L 621.105469 395.808594 Z M 606.25 356.335938 L 634.476562 356.335938 C 650.589844 356.335938 659.757812 365.480469 659.757812 380.699219 C 659.757812 393.253906 653.75 399.121094 648.253906 401.132812 C 655.320312 403.886719 662.707031 410.371094 662.707031 425.152344 C 662.707031 443.328125 651.164062 453.761719 633.972656 453.761719 L 606.25 453.761719 L 606.25 356.335938 " fill-opacity="1" fill-rule="nonzero"/><path fill="#71e4b6" d="M 688.214844 404.011719 C 688.214844 428.71875 692.4375 442.554688 703.289062 442.554688 C 714.628906 442.554688 718.425781 429.523438 718.425781 404.09375 C 718.425781 379.5 714.359375 367.757812 703.25 367.757812 C 692.320312 367.757812 688.214844 380.648438 688.214844 404.011719 Z M 733.972656 404.273438 C 733.972656 439.070312 724.890625 455.367188 702.90625 455.367188 C 682.238281 455.367188 672.667969 439.433594 672.667969 404.199219 C 672.667969 369.714844 683.832031 354.839844 703.59375 354.839844 C 724.464844 354.839844 733.972656 370.714844 733.972656 404.273438 " fill-opacity="1" fill-rule="nonzero"/><path fill="#71e4b6" d="M 761.261719 404.011719 C 761.261719 428.71875 765.484375 442.554688 776.335938 442.554688 C 787.675781 442.554688 791.464844 429.523438 791.464844 404.09375 C 791.464844 379.5 787.40625 367.757812 776.289062 367.757812 C 765.367188 367.757812 761.261719 380.648438 761.261719 404.011719 Z M 807.011719 404.273438 C 807.011719 439.070312 797.941406 455.367188 775.941406 455.367188 C 755.277344 455.367188 745.714844 439.433594 745.714844 404.199219 C 745.714844 369.714844 756.871094 354.839844 776.640625 354.839844 C 797.503906 354.839844 807.011719 370.714844 807.011719 404.273438 " fill-opacity="1" fill-rule="nonzero"/><path fill="#71e4b6" d="M 821.316406 356.335938 L 836.269531 356.335938 L 836.269531 401.527344 C 842.203125 392.300781 855.835938 369.558594 864.414062 356.335938 L 881.839844 356.335938 L 855.761719 394.882812 L 882.449219 453.761719 L 865.539062 453.761719 L 845.441406 407.511719 L 836.269531 420.199219 L 836.269531 453.761719 L 821.316406 453.761719 L 821.316406 356.335938 " fill-opacity="1" fill-rule="nonzero"/><path fill="#71e4b6" d="M 916.070312 453.761719 L 916.070312 356.335938 L 933.613281 356.335938 C 956.070312 414.824219 959.917969 424.726562 961.109375 429.308594 L 961.257812 429.308594 C 960.476562 417.132812 960.394531 402.679688 960.394531 386.761719 L 960.394531 356.335938 L 974.074219 356.335938 L 974.074219 453.761719 L 957.269531 453.761719 C 934.015625 391.765625 930.402344 381.90625 929.195312 377.644531 L 929.054688 377.644531 C 929.769531 389.714844 929.808594 404.601562 929.808594 422.085938 L 929.808594 453.761719 L 916.070312 453.761719 " fill-opacity="1" fill-rule="nonzero"/><path fill="#71e4b6" d="M 1003.679688 404.011719 C 1003.679688 428.71875 1007.902344 442.554688 1018.757812 442.554688 C 1030.105469 442.554688 1033.890625 429.523438 1033.890625 404.09375 C 1033.890625 379.5 1029.824219 367.757812 1018.714844 367.757812 C 1007.789062 367.757812 1003.679688 380.648438 1003.679688 404.011719 Z M 1049.4375 404.273438 C 1049.4375 439.070312 1040.359375 455.367188 1018.371094 455.367188 C 997.707031 455.367188 988.132812 439.433594 988.132812 404.199219 C 988.132812 369.714844 999.300781 354.839844 1019.0625 354.839844 C 1039.929688 354.839844 1049.4375 370.714844 1049.4375 404.273438 " fill-opacity="1" fill-rule="nonzero"/><path fill="#71e4b6" d="M 1090.195312 453.761719 L 1075.042969 453.761719 L 1056.25 356.335938 L 1072.394531 356.335938 C 1076.949219 383.320312 1082.164062 416.121094 1083.523438 432.679688 L 1083.660156 432.679688 C 1086.183594 415.652344 1094.210938 378.210938 1098.335938 356.335938 L 1112.058594 356.335938 C 1115.976562 376.550781 1124.070312 415.351562 1126.25 431.929688 L 1126.527344 431.929688 C 1128.648438 412.636719 1135.617188 376.140625 1138.632812 356.335938 L 1153.726562 356.335938 L 1133.570312 453.761719 L 1118.328125 453.761719 C 1114.390625 432.800781 1107.0625 398.273438 1104.671875 380.9375 L 1104.433594 380.9375 C 1101.851562 398.890625 1094.269531 433.945312 1090.203125 453.761719 L 1090.195312 453.761719 " fill-opacity="1" fill-rule="nonzero"/><path fill="#71e4b6" d="M 394.375 397.09375 L 386.386719 389.105469 L 386.371094 389.128906 L 348.828125 351.585938 C 344.414062 347.175781 337.257812 347.175781 332.855469 351.585938 C 328.433594 356 328.433594 363.148438 332.855469 367.5625 L 370.386719 405.101562 L 332.855469 442.644531 C 328.433594 447.058594 328.433594 454.207031 332.855469 458.617188 C 337.257812 463.03125 344.414062 463.03125 348.828125 458.617188 L 386.371094 421.078125 L 386.386719 421.101562 L 394.375 413.113281 C 396.582031 410.90625 397.683594 408.003906 397.683594 405.101562 C 397.683594 402.203125 396.582031 399.300781 394.375 397.09375 " fill-opacity="1" fill-rule="nonzero"/></svg>