<svg xmlns="http://www.w3.org/2000/svg" xmlns:xlink="http://www.w3.org/1999/xlink" width="1920" zoomAndPan="magnify" viewBox="0 0 1440 809.999993" height="1080" preserveAspectRatio="xMidYMid meet" version="1.0"><defs><clipPath id="057c0ecd5d"><path d="M 143.507812 203 L 1244 203 L 1244 692 L 143.507812 692 Z M 143.507812 203 " clip-rule="nonzero"/></clipPath></defs><path fill="#53c89b" d="M 837.492188 140.503906 L 833.484375 139.871094 C 802.089844 134.144531 769.78125 134.429688 738.328125 140.503906 L 738.328125 188.394531 L 837.492188 187.820312 L 837.492188 140.503906 " fill-opacity="1" fill-rule="nonzero"/><path fill="#53c89b" d="M 639.566406 153.390625 L 713.695312 153.390625 C 721.140625 153.390625 727.214844 146.976562 727.214844 139.472656 C 727.214844 132.136719 721.140625 125.722656 713.695312 125.722656 L 639.566406 125.722656 C 632.117188 125.722656 626.042969 132.136719 626.042969 139.472656 C 626.042969 146.976562 632.117188 153.390625 639.566406 153.390625 " fill-opacity="1" fill-rule="nonzero"/><path fill="#53c89b" d="M 787.882812 104.410156 C 795.332031 104.410156 801.289062 98.453125 801.289062 91.003906 L 801.289062 16.761719 C 801.289062 9.3125 795.332031 3.355469 787.882812 3.355469 C 780.550781 3.355469 774.59375 9.3125 774.59375 16.761719 L 774.59375 91.003906 C 774.59375 98.453125 780.550781 104.410156 787.882812 104.410156 " fill-opacity="1" fill-rule="nonzero"/><path fill="#53c89b" d="M 838.867188 117.816406 C 842.304688 117.816406 845.742188 116.554688 848.378906 113.921875 L 900.910156 61.332031 C 906.183594 56.175781 906.183594 47.695312 900.910156 42.425781 C 895.640625 37.15625 887.164062 37.15625 881.890625 42.425781 L 829.417969 94.902344 C 824.089844 100.171875 824.089844 108.648438 829.417969 113.921875 C 832.050781 116.554688 835.433594 117.816406 838.867188 117.816406 " fill-opacity="1" fill-rule="nonzero"/><path fill="#53c89b" d="M 730.59375 113.921875 C 733.171875 116.554688 736.667969 117.816406 740.105469 117.816406 C 743.542969 117.816406 746.863281 116.554688 749.5 113.921875 C 754.886719 108.648438 754.886719 100.171875 749.5 94.902344 L 696.96875 42.425781 C 691.695312 37.15625 683.21875 37.15625 678.121094 42.425781 C 672.792969 47.695312 672.792969 56.175781 678.121094 61.332031 L 730.59375 113.921875 " fill-opacity="1" fill-rule="nonzero"/><path fill="#53c89b" d="M 851.757812 139.472656 C 851.757812 146.976562 857.714844 153.390625 865.164062 153.390625 L 939.410156 153.390625 C 946.855469 153.390625 952.816406 146.976562 952.816406 139.472656 C 952.816406 132.023438 946.855469 125.722656 939.410156 125.722656 L 865.164062 125.722656 C 857.714844 125.722656 851.757812 132.023438 851.757812 139.472656 " fill-opacity="1" fill-rule="nonzero"/><path fill="#53c89b" d="M 1045.046875 751.246094 C 1017.605469 751.246094 995.378906 729.019531 995.378906 701.578125 C 995.378906 674.195312 1017.605469 651.96875 1045.046875 651.96875 C 1072.488281 651.96875 1094.714844 674.195312 1094.714844 701.578125 C 1094.714844 729.019531 1072.488281 751.246094 1045.046875 751.246094 Z M 1045.164062 596.570312 C 987.246094 596.570312 940.039062 643.660156 940.039062 701.636719 C 940.039062 759.554688 987.246094 806.644531 1045.164062 806.644531 C 1102.964844 806.644531 1150.054688 759.554688 1150.054688 701.636719 C 1150.054688 643.660156 1102.964844 596.570312 1045.164062 596.570312 " fill-opacity="1" fill-rule="nonzero"/><path fill="#53c89b" d="M 380.566406 751.246094 C 353.125 751.246094 330.898438 729.019531 330.898438 701.578125 C 330.898438 674.195312 353.125 651.96875 380.566406 651.96875 C 407.949219 651.96875 430.175781 674.195312 430.175781 701.578125 C 430.175781 729.019531 407.949219 751.246094 380.566406 751.246094 Z M 380.679688 596.570312 C 322.761719 596.570312 275.558594 643.660156 275.558594 701.636719 C 275.558594 759.554688 322.761719 806.644531 380.679688 806.644531 C 438.484375 806.644531 485.574219 759.554688 485.574219 701.636719 C 485.574219 643.660156 438.484375 596.570312 380.679688 596.570312 " fill-opacity="1" fill-rule="nonzero"/><g clip-path="url(#057c0ecd5d)"><path fill="#53c89b" d="M 798.824219 415.140625 L 798.824219 230.101562 L 939.523438 230.101562 L 1103.480469 415.140625 Z M 886.589844 462.746094 L 809.480469 462.746094 L 809.480469 441.550781 L 886.589844 441.550781 Z M 555.351562 411.703125 L 478.472656 411.703125 L 478.472656 488.582031 L 407.777344 488.582031 L 407.777344 411.703125 L 330.898438 411.703125 L 330.898438 341.007812 L 407.777344 341.007812 L 407.777344 264.128906 L 478.472656 264.128906 L 478.472656 341.007812 L 555.351562 341.007812 Z M 196.042969 625.328125 L 170.378906 625.328125 L 170.378906 513.101562 L 196.042969 513.101562 Z M 1196.289062 443.667969 C 1154.695312 435.992188 1113.679688 383.6875 1070.371094 328.40625 C 1022.363281 267.28125 972.808594 204.089844 925.316406 204.089844 L 143.507812 203.519531 L 144.484375 376.183594 L 143.910156 691.039062 L 245.882812 691.039062 C 251.265625 621.03125 309.988281 565.75 381.367188 565.75 C 452.691406 565.75 511.410156 621.03125 516.738281 691.039062 L 909.332031 691.039062 C 914.777344 621.03125 973.382812 565.75 1044.761719 565.75 C 1116.257812 565.75 1174.917969 621.03125 1180.363281 691.039062 L 1237.878906 691.039062 C 1248.992188 596.511719 1247.214844 453.007812 1196.289062 443.667969 " fill-opacity="1" fill-rule="nonzero"/></g></svg>