<svg xmlns="http://www.w3.org/2000/svg" xmlns:xlink="http://www.w3.org/1999/xlink" width="1920" zoomAndPan="magnify" viewBox="0 0 1440 809.999993" height="1080" preserveAspectRatio="xMidYMid meet" version="1.0"><defs><clipPath id="3e08e35bdb"><path d="M 349 289.976562 L 1090.710938 289.976562 L 1090.710938 520.226562 L 349 520.226562 Z M 349 289.976562 " clip-rule="nonzero"/></clipPath></defs><g clip-path="url(#3e08e35bdb)"><path fill="#11263d" d="M 983.195312 520.015625 L 456.796875 520.015625 C 397.480469 520.015625 349.351562 471.890625 349.351562 412.53125 L 349.351562 397.425781 C 349.351562 338.105469 397.480469 289.976562 456.796875 289.976562 L 983.195312 289.976562 C 1042.554688 289.976562 1090.640625 338.105469 1090.640625 397.425781 L 1090.640625 412.53125 C 1090.640625 471.890625 1042.554688 520.015625 983.195312 520.015625 Z M 983.195312 520.015625 " fill-opacity="1" fill-rule="nonzero"/></g><path fill="#53c89b" d="M 434.097656 401.617188 L 434.097656 401.339844 C 444.144531 397.503906 448.769531 390.265625 448.769531 382.476562 C 448.769531 374.289062 444.417969 368.199219 438.210938 364.917969 C 431.605469 361.082031 424.09375 359.894531 411.792969 359.894531 C 401.632812 359.894531 391.070312 360.804688 385.773438 361.753906 L 385.773438 449.152344 C 390.28125 449.824219 397.636719 450.457031 407.5625 450.457031 C 425.238281 450.457031 436.074219 447.570312 442.5625 442.386719 C 448.097656 437.878906 451.816406 431.554688 451.816406 423.367188 C 451.773438 412.058594 444.261719 404.265625 434.097656 401.617188 Z M 405.703125 375.082031 C 407.285156 374.804688 409.777344 374.566406 414.285156 374.566406 C 423.382812 374.566406 428.5625 378.125 428.5625 384.847656 C 428.5625 391.453125 423.023438 395.804688 412.308594 395.804688 L 405.703125 395.804688 Z M 413.496094 435.546875 C 410.054688 435.546875 407.679688 435.546875 405.703125 435.269531 L 405.703125 410.199219 L 412.585938 410.199219 C 422.628906 410.199219 430.65625 413.757812 430.65625 422.617188 C 430.65625 431.988281 422.628906 435.546875 413.496094 435.546875 Z M 413.496094 435.546875 " fill-opacity="1" fill-rule="nonzero"/><path fill="#53c89b" d="M 504.726562 358.984375 C 478.585938 358.984375 461.425781 378.917969 461.425781 405.609375 C 461.425781 431.078125 477.003906 451.007812 503.265625 451.007812 C 529.402344 451.007812 546.960938 433.453125 546.960938 404.148438 C 547.003906 379.429688 532.054688 358.984375 504.726562 358.984375 Z M 504.332031 435.03125 C 490.847656 435.03125 482.660156 422.773438 482.660156 405.175781 C 482.660156 387.894531 490.570312 374.921875 504.332031 374.921875 C 518.210938 374.921875 525.726562 388.644531 525.726562 404.78125 C 525.726562 422.101562 517.9375 435.03125 504.332031 435.03125 Z M 504.332031 435.03125 " fill-opacity="1" fill-rule="nonzero"/><path fill="#53c89b" d="M 599.402344 358.984375 C 573.261719 358.984375 556.097656 378.917969 556.097656 405.609375 C 556.097656 431.078125 571.679688 451.007812 597.9375 451.007812 C 624.078125 451.007812 641.636719 433.453125 641.636719 404.148438 C 641.636719 379.429688 626.726562 358.984375 599.402344 358.984375 Z M 599.003906 435.03125 C 585.519531 435.03125 577.332031 422.773438 577.332031 405.175781 C 577.332031 387.894531 585.242188 374.921875 599.003906 374.921875 C 612.886719 374.921875 620.398438 388.644531 620.398438 404.78125 C 620.398438 422.101562 612.609375 435.03125 599.003906 435.03125 Z M 599.003906 435.03125 " fill-opacity="1" fill-rule="nonzero"/><path fill="#53c89b" d="M 726.144531 360.566406 L 701.308594 360.566406 L 681.261719 390.148438 C 679.164062 393.3125 677.027344 396.476562 675.050781 399.917969 L 674.773438 399.917969 L 674.773438 360.566406 L 654.84375 360.566406 L 654.84375 449.546875 L 674.773438 449.546875 L 674.773438 420.519531 L 682.289062 411.148438 L 704.199219 449.585938 L 727.570312 449.585938 L 696.683594 398.492188 Z M 726.144531 360.566406 " fill-opacity="1" fill-rule="nonzero"/><path fill="#53c89b" d="M 817.773438 386.429688 C 817.773438 399.917969 818.167969 411.898438 819.355469 423.644531 L 819.078125 423.644531 C 815.003906 413.597656 809.824219 402.527344 804.566406 393.152344 L 786.097656 360.527344 L 762.605469 360.527344 L 762.605469 449.507812 L 781.074219 449.507812 L 781.074219 422.695312 C 781.074219 408.179688 780.796875 395.644531 780.164062 383.742188 L 780.679688 383.742188 C 784.910156 394.183594 790.84375 405.648438 796.140625 415.179688 L 815.164062 449.507812 L 836.28125 449.507812 L 836.28125 360.527344 L 817.8125 360.527344 L 817.8125 386.429688 Z M 817.773438 386.429688 " fill-opacity="1" fill-rule="nonzero"/><path fill="#53c89b" d="M 892.871094 358.984375 C 866.730469 358.984375 849.570312 378.917969 849.570312 405.609375 C 849.570312 431.078125 865.148438 451.007812 891.40625 451.007812 C 917.546875 451.007812 935.105469 433.453125 935.105469 404.148438 C 935.144531 379.429688 920.238281 358.984375 892.871094 358.984375 Z M 892.476562 435.03125 C 878.992188 435.03125 870.804688 422.773438 870.804688 405.175781 C 870.804688 387.894531 878.714844 374.921875 892.476562 374.921875 C 906.355469 374.921875 913.871094 388.644531 913.871094 404.78125 C 913.871094 422.101562 906.078125 435.03125 892.476562 435.03125 Z M 892.476562 435.03125 " fill-opacity="1" fill-rule="nonzero"/><path fill="#53c89b" d="M 1033.773438 360.566406 L 1026.496094 396.871094 C 1024.636719 407.546875 1022.660156 417.988281 1021.355469 427.914062 L 1021.078125 427.914062 C 1019.773438 418.027344 1018.3125 408.496094 1016.332031 398.058594 L 1009.214844 360.566406 L 987.820312 360.566406 L 980.308594 396.871094 C 978.054688 407.945312 975.957031 418.660156 974.496094 428.308594 L 974.21875 428.308594 C 972.753906 419.332031 970.933594 407.863281 968.917969 397.148438 L 962.195312 360.566406 L 940.683594 360.566406 L 961.800781 449.546875 L 983.867188 449.546875 L 992.328125 411.265625 C 994.425781 402.289062 995.890625 393.824219 997.46875 383.820312 L 997.746094 383.820312 C 998.816406 393.984375 1000.238281 402.289062 1001.980469 411.265625 L 1009.492188 449.546875 L 1031.28125 449.546875 L 1054.257812 360.566406 Z M 1033.773438 360.566406 " fill-opacity="1" fill-rule="nonzero"/></svg>