<svg xmlns="http://www.w3.org/2000/svg" xmlns:xlink="http://www.w3.org/1999/xlink" width="1920" zoomAndPan="magnify" viewBox="0 0 1440 809.999993" height="1080" preserveAspectRatio="xMidYMid meet" version="1.0"><path fill="#71e4b6" d="M 390.859375 420.292969 L 526.675781 420.292969 C 534.019531 420.292969 538.914062 415.398438 538.914062 408.058594 L 538.914062 362.785156 C 538.914062 355.445312 534.019531 350.550781 526.675781 350.550781 C 519.335938 350.550781 514.441406 355.445312 514.441406 362.785156 L 514.441406 395.824219 L 403.097656 395.824219 L 403.097656 284.480469 L 526.675781 284.480469 C 534.019531 284.480469 538.914062 279.585938 538.914062 272.242188 C 538.914062 264.902344 534.019531 260.007812 526.675781 260.007812 L 390.859375 260.007812 C 383.519531 260.007812 378.625 264.902344 378.625 272.242188 L 378.625 408.058594 C 378.625 415.398438 383.519531 420.292969 390.859375 420.292969 Z M 390.859375 420.292969 " fill-opacity="1" fill-rule="nonzero"/><path fill="#71e4b6" d="M 525.453125 657.667969 C 518.113281 657.667969 513.21875 662.558594 513.21875 669.902344 L 513.21875 696.820312 L 403.097656 696.820312 L 403.097656 585.476562 L 526.675781 585.476562 C 534.019531 585.476562 538.914062 580.582031 538.914062 573.238281 C 538.914062 565.898438 534.019531 561.003906 526.675781 561.003906 L 390.859375 561.003906 C 383.519531 561.003906 378.625 565.898438 378.625 573.238281 L 378.625 709.054688 C 378.625 716.398438 383.519531 721.292969 390.859375 721.292969 L 526.675781 721.292969 C 534.019531 721.292969 538.914062 716.398438 538.914062 709.054688 L 538.914062 669.902344 C 537.6875 663.785156 532.792969 657.667969 525.453125 657.667969 Z M 525.453125 657.667969 " fill-opacity="1" fill-rule="nonzero"/><path fill="#71e4b6" d="M 833.792969 641.757812 C 826.449219 641.757812 821.554688 646.652344 821.554688 653.996094 L 821.554688 685.808594 L 710.210938 685.808594 L 710.210938 574.464844 L 833.792969 574.464844 C 841.132812 574.464844 846.027344 569.570312 846.027344 562.226562 C 846.027344 554.886719 841.132812 549.992188 833.792969 549.992188 L 697.976562 549.992188 C 690.632812 549.992188 685.738281 554.886719 685.738281 562.226562 L 685.738281 698.042969 C 685.738281 705.386719 690.632812 710.28125 697.976562 710.28125 L 833.792969 710.28125 C 841.132812 710.28125 846.027344 705.386719 846.027344 698.042969 L 846.027344 653.996094 C 846.027344 646.652344 841.132812 641.757812 833.792969 641.757812 Z M 833.792969 641.757812 " fill-opacity="1" fill-rule="nonzero"/><path fill="#71e4b6" d="M 749.367188 606.277344 C 745.695312 600.160156 738.351562 598.933594 732.234375 602.605469 C 726.117188 606.277344 724.894531 613.617188 728.566406 619.734375 L 760.378906 668.679688 C 762.824219 671.125 765.273438 673.574219 768.941406 673.574219 C 770.167969 673.574219 770.167969 673.574219 771.390625 673.574219 C 773.835938 673.574219 777.507812 672.347656 778.730469 671.125 L 876.617188 590.371094 C 881.511719 586.699219 882.734375 578.132812 877.839844 573.238281 C 872.945312 568.347656 865.605469 567.121094 860.710938 572.015625 L 772.613281 642.984375 Z M 749.367188 606.277344 " fill-opacity="1" fill-rule="nonzero"/><path fill="#71e4b6" d="M 443.472656 313.84375 C 439.804688 307.726562 432.460938 306.503906 426.34375 310.171875 C 420.226562 313.84375 419.003906 321.1875 422.671875 327.304688 L 454.488281 376.246094 C 456.933594 378.691406 459.378906 381.140625 463.050781 381.140625 C 464.273438 381.140625 464.273438 381.140625 465.5 381.140625 C 467.945312 381.140625 471.617188 379.917969 472.839844 378.691406 L 570.726562 297.9375 C 575.621094 294.265625 576.84375 285.703125 571.949219 280.808594 C 567.054688 275.914062 559.714844 274.691406 554.820312 279.585938 L 466.722656 350.550781 Z M 443.472656 313.84375 " fill-opacity="1" fill-rule="nonzero"/><path fill="#71e4b6" d="M 554.820312 580.582031 L 466.722656 651.546875 L 442.25 614.839844 C 438.578125 608.722656 431.238281 607.5 425.121094 611.171875 C 419.003906 614.839844 417.78125 622.183594 421.449219 628.300781 L 453.261719 677.242188 C 455.710938 679.691406 458.15625 682.136719 461.828125 682.136719 C 463.050781 682.136719 463.050781 682.136719 464.273438 682.136719 C 466.722656 682.136719 470.394531 680.914062 471.617188 679.691406 L 569.5 598.933594 C 574.394531 595.265625 575.621094 586.699219 570.726562 581.804688 C 567.054688 576.910156 559.714844 575.6875 554.820312 580.582031 Z M 554.820312 580.582031 " fill-opacity="1" fill-rule="nonzero"/><path fill="#71e4b6" d="M 624.5625 240.429688 C 624.5625 233.089844 619.667969 228.195312 612.328125 228.195312 C 604.984375 228.195312 600.089844 233.089844 600.089844 240.429688 L 600.089844 466.789062 L 390.859375 466.789062 C 383.519531 466.789062 378.625 471.683594 378.625 479.027344 C 378.625 486.367188 383.519531 491.261719 390.859375 491.261719 L 601.3125 491.261719 L 601.3125 717.621094 C 601.3125 724.960938 606.207031 729.855469 613.550781 729.855469 C 620.890625 729.855469 625.785156 724.960938 625.785156 717.621094 L 625.785156 492.484375 L 836.238281 492.484375 C 843.578125 492.484375 848.472656 487.589844 848.472656 480.25 C 848.472656 472.90625 843.578125 468.011719 836.238281 468.011719 L 624.5625 468.011719 Z M 624.5625 240.429688 " fill-opacity="1" fill-rule="nonzero"/><path fill="#71e4b6" d="M 918.21875 33.648438 C 861.933594 33.648438 809.320312 56.894531 772.613281 93.601562 L 772.613281 86.261719 C 772.613281 78.921875 767.71875 74.027344 760.378906 74.027344 L 720 74.027344 L 720 64.238281 C 720 29.976562 691.859375 1.835938 657.597656 1.835938 L 569.5 1.835938 C 535.242188 1.835938 507.101562 29.976562 507.101562 64.238281 L 507.101562 72.800781 L 466.722656 72.800781 C 459.378906 72.800781 454.488281 77.695312 454.488281 85.039062 L 454.488281 114.402344 L 359.046875 114.402344 C 334.578125 114.402344 315 133.980469 315 158.453125 L 315 764.117188 C 315 788.585938 334.578125 808.164062 359.046875 808.164062 L 866.828125 808.164062 C 891.300781 808.164062 910.875 788.585938 910.875 764.117188 L 910.875 445.988281 C 913.324219 445.988281 915.769531 445.988281 918.21875 445.988281 C 1032.007812 445.988281 1125 353 1125 239.207031 C 1125 125.414062 1032.007812 33.648438 918.21875 33.648438 Z M 530.347656 64.238281 C 530.347656 43.4375 547.476562 26.304688 568.277344 26.304688 L 656.375 26.304688 C 677.175781 26.304688 694.304688 43.4375 694.304688 64.238281 L 694.304688 72.800781 L 530.347656 72.800781 Z M 748.140625 98.496094 L 748.140625 124.191406 C 739.578125 136.425781 732.234375 149.886719 726.117188 164.570312 L 477.734375 164.570312 C 477.734375 141.320312 477.734375 124.191406 477.734375 98.496094 C 565.832031 98.496094 609.878906 98.496094 748.140625 98.496094 Z M 886.40625 765.339844 C 886.40625 776.351562 877.839844 784.917969 866.828125 784.917969 L 359.046875 784.917969 C 348.035156 784.917969 339.472656 776.351562 339.472656 765.339844 L 339.472656 159.675781 C 339.472656 148.664062 348.035156 140.097656 359.046875 140.097656 L 453.261719 140.097656 L 453.261719 175.582031 C 453.261719 182.921875 458.15625 187.816406 465.5 187.816406 L 718.777344 187.816406 C 713.882812 204.945312 711.433594 222.078125 711.433594 240.429688 C 711.433594 343.210938 787.296875 428.859375 886.40625 444.765625 Z M 918.21875 422.742188 C 817.886719 422.742188 735.90625 340.761719 735.90625 240.429688 C 735.90625 140.097656 817.886719 58.121094 918.21875 58.121094 C 1018.550781 58.121094 1100.527344 140.097656 1100.527344 240.429688 C 1100.527344 340.761719 1018.550781 422.742188 918.21875 422.742188 Z M 918.21875 422.742188 " fill-opacity="1" fill-rule="nonzero"/><path fill="#71e4b6" d="M 916.992188 113.179688 C 924.335938 113.179688 929.230469 108.285156 929.230469 100.945312 L 929.230469 83.8125 C 929.230469 76.472656 924.335938 71.578125 916.992188 71.578125 C 909.652344 71.578125 904.757812 76.472656 904.757812 83.8125 L 904.757812 99.71875 C 904.757812 107.0625 909.652344 113.179688 916.992188 113.179688 Z M 916.992188 113.179688 " fill-opacity="1" fill-rule="nonzero"/><path fill="#71e4b6" d="M 919.441406 368.90625 C 912.101562 368.90625 907.207031 373.800781 907.207031 381.140625 L 907.207031 397.046875 C 907.207031 404.386719 912.101562 409.28125 919.441406 409.28125 C 926.78125 409.28125 931.675781 404.386719 931.675781 397.046875 L 931.675781 381.140625 C 931.675781 373.800781 926.78125 368.90625 919.441406 368.90625 Z M 919.441406 368.90625 " fill-opacity="1" fill-rule="nonzero"/><path fill="#71e4b6" d="M 1074.832031 226.972656 L 1058.925781 226.972656 C 1051.585938 226.972656 1046.691406 231.867188 1046.691406 239.207031 C 1046.691406 246.546875 1051.585938 251.441406 1058.925781 251.441406 L 1074.832031 251.441406 C 1082.175781 251.441406 1087.070312 246.546875 1087.070312 239.207031 C 1087.070312 231.867188 1082.175781 226.972656 1074.832031 226.972656 Z M 1074.832031 226.972656 " fill-opacity="1" fill-rule="nonzero"/><path fill="#71e4b6" d="M 777.507812 230.640625 L 761.601562 230.640625 C 754.261719 230.640625 749.367188 235.535156 749.367188 242.878906 C 749.367188 250.21875 754.261719 255.113281 761.601562 255.113281 L 777.507812 255.113281 C 784.847656 255.113281 789.742188 250.21875 789.742188 242.878906 C 789.742188 235.535156 784.847656 230.640625 777.507812 230.640625 Z M 777.507812 230.640625 " fill-opacity="1" fill-rule="nonzero"/><path fill="#71e4b6" d="M 1024.667969 148.664062 L 1035.679688 137.652344 C 1040.574219 132.757812 1040.574219 125.414062 1035.679688 120.519531 C 1030.785156 115.625 1023.445312 115.625 1018.550781 120.519531 L 1007.539062 131.535156 C 1002.644531 136.425781 1002.644531 143.769531 1007.539062 148.664062 C 1012.433594 153.558594 1019.773438 153.558594 1024.667969 148.664062 Z M 1024.667969 148.664062 " fill-opacity="1" fill-rule="nonzero"/><path fill="#71e4b6" d="M 811.765625 332.199219 L 800.753906 344.433594 C 795.859375 349.328125 795.859375 356.667969 800.753906 361.5625 C 805.648438 366.457031 812.992188 366.457031 817.886719 361.5625 L 828.898438 350.550781 C 833.792969 345.65625 833.792969 338.316406 828.898438 333.421875 C 824.003906 328.527344 816.660156 327.304688 811.765625 332.199219 Z M 811.765625 332.199219 " fill-opacity="1" fill-rule="nonzero"/><path fill="#71e4b6" d="M 1027.113281 329.75 C 1022.21875 324.855469 1014.878906 324.855469 1009.984375 329.75 C 1005.089844 334.644531 1005.089844 341.988281 1009.984375 346.878906 L 1020.996094 357.894531 C 1025.890625 362.785156 1033.234375 362.785156 1038.125 357.894531 C 1043.019531 353 1043.019531 345.65625 1038.125 340.761719 Z M 1027.113281 329.75 " fill-opacity="1" fill-rule="nonzero"/><path fill="#71e4b6" d="M 809.320312 151.109375 C 814.214844 156.003906 821.554688 156.003906 826.449219 151.109375 C 831.34375 146.214844 831.34375 138.875 826.449219 133.980469 L 815.4375 122.96875 C 810.542969 118.074219 803.203125 118.074219 798.308594 122.96875 C 793.414062 127.863281 793.414062 135.203125 798.308594 140.097656 Z M 809.320312 151.109375 " fill-opacity="1" fill-rule="nonzero"/><path fill="#71e4b6" d="M 952.476562 256.335938 C 954.925781 251.441406 956.148438 246.546875 956.148438 240.429688 C 956.148438 223.300781 945.136719 209.839844 930.453125 204.945312 L 930.453125 136.425781 C 930.453125 129.085938 925.558594 124.191406 918.21875 124.191406 C 910.875 124.191406 905.980469 129.085938 905.980469 136.425781 L 905.980469 204.945312 C 891.300781 209.839844 880.285156 224.523438 880.285156 240.429688 C 880.285156 261.230469 897.417969 278.359375 918.21875 278.359375 C 924.335938 278.359375 930.453125 277.136719 935.347656 273.464844 L 983.066406 321.1875 C 987.960938 326.078125 995.300781 326.078125 1000.195312 321.1875 C 1005.089844 316.292969 1005.089844 308.949219 1000.195312 304.054688 Z M 904.757812 240.429688 C 904.757812 233.089844 910.875 226.972656 918.21875 226.972656 C 925.558594 226.972656 931.675781 233.089844 931.675781 240.429688 C 931.675781 247.773438 925.558594 253.890625 918.21875 253.890625 C 910.875 253.890625 904.757812 247.773438 904.757812 240.429688 Z M 904.757812 240.429688 " fill-opacity="1" fill-rule="nonzero"/></svg>